.
 
http://www.scenetime.com    -   SceneTime [ We been having it ] !!!


How come you press harder on a remote control when you know the battery is dead? so you better seed to get speed ;)

        Seed back for speed


...................................NFO:.................................................
                                                                             
 :::  :::  :::::  :::   :::   :::::    ::: :::     :::    :::::    
 :::  :::  ::::::::::  :::   :::::::    ::::: :::     :::   :::::::   
 :::  ::::::::::::::::::::::::::: ::: ::: :::     :::  :::::::::  
 :::  ::: :::::::::::: :::::: ::: ::: :::     :::  ::::::  
 :::  ::: ::: :::::::::: :::  ::: ::: :::  :::     :::  ::: :::  
 :::  ::: ::: :::::::::  :::  ::: ::: :::  :::  :  :::  ::: :::  
 :::  ::: ::: :::::::::: :::  ::: ::: :::  ::: ::: :::  ::: :::  
 :::  ::: ::: ::::::::::::  ::: ::: :::  ::: : : :::  ::: :::  
 :::..::: ::: :::::: ::::::  ::: ::: :::  ::::: :::::  ::: :::  
 ::::::::: :::::: ::::::  ::: ::::: ::::: :::::  ::: :::  
  ::::  ::: ::::::  ::::::  ::: :::  ::::   ::::  ::: :::  

                                                                              
                  NOTES                    
                                                                              
                  NOTES                    
                                                                              
                                                                              
                                                                              
 Encoded By .......:UnKnOwN                                                   
 Runtime ..........:1:51                                                      
 IMDb URL .........:http://www.imdb.com/title/tt1652287/                      
 Language .........:English                                                   
 File Size ........:1.28gb                                                    
 Release Date ......... 2011                                                  
 Source       ......... Your Sister                                           
 File Type    ......... Single AVI                                            
 PS3 Compatible ....... Go for it                                             
 Genre        ......... Comedy                                                
                                                                              
                                                                              
 Video                                                                        
  ID                               : 0                                        
  Format                           : MPEG-4 Visual                            
  Format profile                   : Advanced Simple@L5                        
  Format settings, BVOP            : Yes                                       
  Format settings, QPel            : No                                        
  Format settings, GMC             : No warppoints                             
  Format settings, Matrix          : Custom                                    
  Codec ID                         : XVID                                      
  Codec ID/Hint                    : XviD                                      
  Duration                         : 1h 51mn                                   
  Bit rate                         : 1 360 Kbps                                
  Width                            : 672pixels                                 
  Height                           : 384 pixels                                
  Display aspect ratio             : 16:9                                      
  Frame rate                       : 23.976 fps                                
  Color space                      : YUV                                       
  Chroma subsampling               : 4:2:0                                     
  Bit depth                        : 8 bits                                    
  Scan type                        : Progressive                               
  Bits/(Pixel*Frame)               : 0.234                                     
  Stream size                      : 892 MiB (86%)                             
  Writing library                  : XviD 1.2.1 (UTC 2008-12-04)              
                                                                              
                                                                              
 Audio                                                                         
 ID                               : 1                                          
 Format                           : AC-3                                       
 Format/Info                      : Audio Coding 3                             
 Mode extension                   : Layer 3                                    
 Codec ID                         : 2000                                       
 Duration                         : 1h 51mn                                    
 Bit rate mode                    : Constant                                   
 Bit rate                         : 384 Kbps                                   
 Channel(s)                       : 6 channels                                 
 Channel positions                : Front: L C R, Side: L R, LFE               
 Sampling rate                    : 48.0 KHz                                   
 Bit depth                        : 16 bits                                    
 Stream size                      : 302 MiB                                    
 Alignment                        : Aligned on interleaves                     
 Interleave, duration             : 42 ms (1.00 video frame)                   
 Interleave, preload duration     : 512 ms                                    
                                                                              
                                                                              
                                                                              
                                                                               
                                                                              
                                                                              
                                                                              
                                 SYSPNOSIS                                    
    A romantic comedy which looks at a group of thirty-somethings trying to   
                    figure out life, love and marriage.                       
                                                                              
                                                                              
                                RELEASE INFO                                  
                                                                              
                                                                              
                                  Woot                                        
                                                                              
                                                                              
                                                                              
                                                                              

                 
              
                                                                              
                                 LOOKING FOR                                  
                                                                              
                        Our personal ass kissing crew                         
                      We want to be E-Warriors as well(:                      
                                                                              
                                                                              
                                                                              

               GREETZ & RESPECT               
  
                          NOBODY YET WILL LET YOU KNOW                        
                                                                              
                          MORE GOODIES COMING REAL SOON